<mxfile host="app.diagrams.net" modified="2023-01-31T08:13:59.927Z" agent="5.0 (Macintosh; Intel Mac OS X 10_15_2) AppleWebKit/537.36 (KHTML, like Gecko) Chrome/109.0.0.0 Safari/537.36" etag="jr7uDeluoKrsxG53e5NY" version="20.8.13" type="github">
  <diagram name="第 1 页" id="8LBL9vi3ukwS91IAbLZn">
    <mxGraphModel dx="954" dy="569" grid="1" gridSize="10" guides="1" tooltips="1" connect="1" arrows="1" fold="1" page="1" pageScale="1" pageWidth="827" pageHeight="1169" math="0" shadow="0">
      <root>
        <mxCell id="0" />
        <mxCell id="1" parent="0" />
        <mxCell id="RpLekfN0j3j2eR4J-63L-9" value="" style="rounded=1;whiteSpace=wrap;html=1;strokeWidth=2;fillColor=#dae8fc;strokeColor=#6c8ebf;" vertex="1" parent="1">
          <mxGeometry x="100" y="140" width="260" height="360" as="geometry" />
        </mxCell>
        <mxCell id="RpLekfN0j3j2eR4J-63L-2" value="&lt;b&gt;前端 UI 层&lt;/b&gt;" style="rounded=0;whiteSpace=wrap;html=1;strokeWidth=2;" vertex="1" parent="1">
          <mxGeometry x="120" y="160" width="220" height="40" as="geometry" />
        </mxCell>
        <mxCell id="RpLekfN0j3j2eR4J-63L-3" value="&lt;b style=&quot;&quot;&gt;&lt;font color=&quot;#000000&quot;&gt;Presenter 抽象接口层&lt;/font&gt;&lt;/b&gt;" style="rounded=0;whiteSpace=wrap;html=1;fillColor=#f5f5f5;strokeColor=#666666;strokeWidth=2;dashed=1;fontColor=#333333;" vertex="1" parent="1">
          <mxGeometry x="120" y="220" width="220" height="40" as="geometry" />
        </mxCell>
        <mxCell id="RpLekfN0j3j2eR4J-63L-4" value="" style="rounded=0;whiteSpace=wrap;html=1;fillColor=#d5e8d4;strokeColor=#82b366;strokeWidth=2;" vertex="1" parent="1">
          <mxGeometry x="120" y="280" width="220" height="90" as="geometry" />
        </mxCell>
        <mxCell id="RpLekfN0j3j2eR4J-63L-5" value="&lt;b&gt;业务驱动层&lt;/b&gt;" style="rounded=0;whiteSpace=wrap;html=1;dashed=1;strokeWidth=2;fontColor=#000000;" vertex="1" parent="1">
          <mxGeometry x="130" y="290" width="200" height="30" as="geometry" />
        </mxCell>
        <mxCell id="RpLekfN0j3j2eR4J-63L-6" value="&lt;b&gt;领域模型层&lt;/b&gt;" style="rounded=0;whiteSpace=wrap;html=1;dashed=1;strokeWidth=2;fontColor=#000000;" vertex="1" parent="1">
          <mxGeometry x="130" y="330" width="200" height="30" as="geometry" />
        </mxCell>
        <mxCell id="RpLekfN0j3j2eR4J-63L-7" value="&lt;font color=&quot;#000000&quot;&gt;&lt;b&gt;HttpService 接口层&lt;/b&gt;&lt;/font&gt;" style="rounded=0;whiteSpace=wrap;html=1;fillColor=#f5f5f5;strokeColor=#666666;strokeWidth=2;dashed=1;fontColor=#333333;" vertex="1" parent="1">
          <mxGeometry x="120" y="390" width="220" height="40" as="geometry" />
        </mxCell>
        <mxCell id="RpLekfN0j3j2eR4J-63L-8" value="&lt;b style=&quot;&quot;&gt;&lt;font color=&quot;#e54545&quot;&gt;后端 API 层&lt;/font&gt;&lt;/b&gt;" style="rounded=0;whiteSpace=wrap;html=1;fillColor=#f8cecc;strokeColor=#b85450;strokeWidth=2;" vertex="1" parent="1">
          <mxGeometry x="120" y="440" width="220" height="40" as="geometry" />
        </mxCell>
      </root>
    </mxGraphModel>
  </diagram>
</mxfile>
